<?xml version="1.0" standalone="no"?>
<!DOCTYPE svg PUBLIC "-//W3C//DTD SVG 20010904//EN"
 "http://www.w3.org/TR/2001/REC-SVG-20010904/DTD/svg10.dtd">
<svg version="1.0" xmlns="http://www.w3.org/2000/svg"
 width="248.000000pt" height="248.000000pt" viewBox="0 0 248.000000 248.000000"
 preserveAspectRatio="xMidYMid meet">
<metadata>
Created by potrace 1.14, written by Peter Selinger 2001-2017
</metadata>
<g transform="translate(0.000000,248.000000) scale(0.100000,-0.100000)"
fill="#000000" stroke="none">
<path d="M1249 2446 c-2 -2 -44 -7 -94 -11 -144 -10 -182 -18 -310 -61 -89
-30 -273 -120 -295 -145 -3 -3 -23 -18 -45 -34 -39 -28 -195 -181 -225 -221
-65 -85 -165 -268 -155 -284 3 -4 2 -10 -3 -12 -4 -1 -17 -29 -29 -60 -11 -32
-15 -55 -9 -51 6 4 5 0 -2 -9 -7 -9 -15 -29 -17 -45 -2 -15 -5 -28 -6 -28 -2
0 -7 -31 -13 -88 -3 -26 -8 -52 -11 -57 -4 -6 -1 -10 6 -10 8 0 8 -4 2 -12
-16 -20 -5 -225 17 -320 25 -110 100 -312 121 -328 3 -3 14 -21 24 -40 10 -19
30 -51 44 -70 14 -19 33 -44 41 -55 46 -63 206 -207 287 -259 50 -32 94 -58
98 -57 4 2 11 -1 14 -6 20 -28 226 -96 361 -119 72 -12 316 -13 370 -1 14 3
39 8 57 10 35 6 235 68 243 77 3 3 34 19 69 35 35 17 69 35 75 40 6 6 38 28
71 49 88 57 232 207 303 315 34 52 62 100 62 108 0 7 4 13 8 13 7 0 30 52 33
75 0 6 5 16 11 23 6 6 7 12 3 12 -4 0 -2 6 4 14 7 8 14 25 17 37 3 13 6 29 8
34 1 6 8 21 15 34 9 17 10 21 1 16 -9 -5 -9 -3 -2 11 36 72 45 319 18 494 -16
102 -81 280 -131 365 -19 32 -35 61 -35 66 0 5 -4 9 -9 9 -5 0 -11 6 -13 13
-4 19 -63 91 -125 155 -29 30 -53 58 -53 63 0 5 -5 9 -11 9 -6 0 -28 15 -49
33 -63 54 -94 77 -107 77 -6 0 -13 4 -15 8 -7 17 -167 92 -258 121 -102 32
-178 47 -279 56 -35 3 -67 7 -71 10 -4 2 -9 3 -11 1z"/>
</g>
</svg>
